<?xml version="1.0" standalone="no"?>
<!DOCTYPE svg PUBLIC "-//W3C//DTD SVG 20010904//EN"
 "http://www.w3.org/TR/2001/REC-SVG-20010904/DTD/svg10.dtd">
<svg version="1.0" xmlns="http://www.w3.org/2000/svg"
 width="60.000000pt" height="80.000000pt" viewBox="0 0 60.000000 80.000000"
 preserveAspectRatio="xMidYMid meet">
<metadata>
Created by potrace 1.13, written by Peter Selinger 2001-2015
</metadata>
<g transform="translate(0.000000,80.000000) scale(0.100000,-0.100000)"
fill="#000000" stroke="none">
<path d="M188 730 c-46 -25 -68 -56 -114 -161 -33 -75 -37 -96 -41 -189 -6
-119 3 -151 58 -220 58 -72 89 -85 209 -86 117 -2 134 3 193 63 68 67 79 100
78 233 -1 115 -11 165 -45 228 -8 15 -23 44 -32 65 -26 58 -90 87 -191 87 -57
-1 -88 -6 -115 -20z m132 -45 c0 -28 -3 -55 -7 -58 -10 -11 -33 14 -34 37 -1
18 -2 18 -6 3 -3 -10 3 -27 13 -38 27 -30 44 -7 45 60 0 40 3 50 9 36 7 -17 9
-17 9 -2 1 24 27 21 78 -8 56 -33 89 -95 51 -95 -5 0 -7 3 -4 8 2 4 -9 23 -25
42 l-29 35 22 -41 22 -40 -22 -22 c-41 -41 -17 -83 34 -60 22 10 28 10 32 0 2
-6 8 -12 14 -12 6 0 6 6 -2 15 -15 18 -42 19 -58 3 -9 -9 -15 -9 -24 0 -16 16
-1 42 33 59 21 11 26 10 41 -10 34 -43 48 -109 49 -229 1 -75 -3 -124 -11
-139 -20 -37 -58 -81 -101 -116 -39 -31 -40 -31 -147 -29 -124 2 -138 8 -207
93 -52 63 -59 92 -53 216 4 74 10 103 31 146 15 30 27 60 27 66 0 21 60 95 93
115 20 13 48 19 79 18 l48 -1 0 -52z"/>
<path d="M242 687 c-14 -39 -46 -72 -61 -62 -7 4 -5 15 5 33 l16 27 -21 -24
c-19 -21 -20 -26 -8 -38 7 -8 21 -11 31 -7 18 7 59 79 54 95 -2 6 -9 -5 -16
-24z"/>
<path d="M394 696 c-3 -8 0 -24 6 -36 20 -37 3 -33 -20 5 -12 20 -24 34 -27
31 -8 -7 41 -76 55 -76 15 0 16 36 1 46 -6 3 -9 15 -6 25 6 22 -1 26 -9 5z"/>
<path d="M151 661 c-26 -36 -26 -53 -1 -69 11 -7 20 -21 20 -31 0 -23 -16 -36
-25 -21 -12 19 -45 10 -57 -16 -10 -21 -9 -27 3 -35 12 -8 10 -12 -9 -27 -18
-14 -20 -20 -10 -30 27 -27 70 -1 67 40 0 7 -5 1 -11 -14 -6 -17 -17 -28 -28
-28 -27 0 -34 17 -10 25 23 7 26 25 8 43 -19 19 13 47 38 34 28 -14 44 -4 44
28 0 17 -8 33 -22 42 l-22 15 22 36 c26 44 22 49 -7 8z"/>
<path d="M230 580 c-12 -21 -5 -96 10 -120 7 -12 13 -12 34 0 14 7 26 18 26
23 0 6 -9 2 -20 -8 -27 -25 -39 -11 -42 49 -2 38 1 51 15 60 15 9 21 7 32 -8
14 -18 16 -18 33 -3 33 30 52 22 51 -20 -1 -52 -13 -89 -28 -85 -7 1 -10 -2
-6 -7 3 -6 12 -8 19 -5 14 5 26 55 26 112 0 29 -3 32 -30 32 -16 0 -33 -7 -38
-16 -8 -14 -10 -14 -21 0 -19 22 -48 20 -61 -4z"/>
<path d="M531 504 c0 -11 3 -14 6 -6 3 7 2 16 -1 19 -3 4 -6 -2 -5 -13z"/>
<path d="M445 483 c-17 -41 -22 -82 -12 -92 6 -6 29 -8 54 -4 29 4 43 2 43 -6
0 -6 -6 -11 -14 -11 -7 0 -30 -7 -51 -16 -36 -15 -37 -16 -19 -35 21 -23 47
-25 64 -4 7 8 20 15 29 16 11 0 12 2 3 6 -7 3 -24 -2 -37 -11 -20 -13 -30 -14
-47 -5 -21 11 -21 12 13 24 19 7 42 16 52 19 9 3 17 13 17 22 0 13 -9 15 -52
12 l-53 -3 4 30 c1 17 8 39 14 50 10 19 11 19 19 -7 10 -29 32 -41 59 -33 23
7 25 35 4 35 -8 0 -15 5 -15 12 0 6 -3 8 -7 4 -5 -4 1 -14 11 -22 17 -12 18
-14 2 -20 -21 -8 -46 12 -46 37 0 24 -25 25 -35 2z"/>
<path d="M156 465 c3 -11 8 -34 11 -52 5 -31 4 -32 -33 -36 l-39 -4 40 1 c47
1 56 23 30 77 -8 19 -13 25 -9 14z"/>
<path d="M264 420 c-15 -22 -30 -40 -35 -40 -5 0 -13 -9 -18 -19 -8 -14 -7
-22 4 -31 11 -9 19 -7 40 14 37 38 74 34 104 -9 13 -19 27 -32 32 -29 17 10 9
57 -13 78 -13 12 -31 32 -41 46 l-17 25 14 -30 c8 -17 23 -39 35 -49 12 -11
21 -31 20 -45 0 -15 -3 -20 -6 -11 -22 60 -92 79 -133 35 -12 -13 -27 -22 -32
-19 -6 4 6 23 26 43 20 20 36 42 36 48 0 7 8 17 18 22 9 6 11 11 5 11 -7 0
-25 -18 -39 -40z"/>
<path d="M74 369 c1 -6 20 -18 41 -27 51 -19 50 -19 35 -37 -11 -13 -16 -13
-46 6 -19 11 -34 18 -34 15 0 -4 14 -15 32 -26 23 -14 36 -16 50 -9 33 18 21
44 -26 58 -25 7 -47 17 -50 22 -2 5 -4 4 -2 -2z"/>
<path d="M264 315 c-3 -14 -10 -25 -15 -25 -12 0 -11 -37 1 -45 6 -3 7 -17 4
-31 -5 -18 -1 -29 12 -39 11 -7 16 -17 12 -20 -11 -11 -68 51 -68 74 0 29 -28
26 -42 -4 -6 -14 -15 -25 -20 -25 -17 0 -7 -23 26 -56 19 -19 39 -34 45 -34 6
0 -7 16 -28 35 l-40 36 17 29 c21 37 28 37 36 4 8 -29 52 -74 72 -74 19 0 18
24 -1 40 -9 8 -13 21 -9 36 4 13 1 30 -5 38 -18 21 14 76 45 76 19 0 24 -5 24
-25 0 -14 5 -25 10 -25 12 0 13 -33 1 -46 -14 -14 -25 -94 -13 -94 17 0 60 58
67 90 8 38 29 39 45 1 16 -40 7 -63 -38 -95 -20 -14 -31 -26 -23 -26 20 0 81
65 81 87 0 10 -6 31 -12 46 -17 36 -48 32 -61 -8 -6 -16 -21 -43 -35 -60 l-25
-30 7 35 c4 19 12 45 19 58 8 18 8 28 -1 42 -7 11 -12 29 -12 40 0 16 -7 20
-35 20 -29 0 -36 -4 -41 -25z"/>
<path d="M530 310 c-8 -5 -12 -12 -9 -15 4 -3 12 1 19 10 14 17 11 19 -10 5z"/>
<path d="M64 285 c1 -13 9 -21 24 -23 12 -2 22 -10 22 -18 0 -9 -5 -12 -12 -8
-7 4 -8 3 -4 -4 12 -20 28 -13 24 11 -2 14 -11 23 -25 25 -12 2 -24 11 -26 20
-3 12 -4 11 -3 -3z"/>
<path d="M507 263 c-12 -12 -7 -21 16 -26 20 -5 20 -5 5 7 -10 7 -15 16 -11
19 3 4 4 7 1 7 -2 0 -8 -3 -11 -7z"/>
<path d="M104 191 c21 -23 26 -26 26 -11 0 5 -10 15 -22 21 -23 12 -23 12 -4
-10z"/>
<path d="M465 158 c-28 -28 -36 -41 -20 -27 29 22 81 79 73 79 -2 0 -26 -23
-53 -52z"/>
<path d="M130 156 c0 -2 8 -10 18 -17 15 -13 16 -12 3 4 -13 16 -21 21 -21 13z"/>
<path d="M365 151 c-3 -5 0 -13 6 -17 7 -4 9 -3 5 4 -3 5 0 13 6 15 9 4 10 6
1 6 -6 1 -14 -3 -18 -8z"/>
<path d="M340 99 c0 -5 5 -7 10 -4 6 3 10 8 10 11 0 2 -4 4 -10 4 -5 0 -10 -5
-10 -11z"/>
</g>
</svg>
