<?xml version="1.0" standalone="no"?>
<!DOCTYPE svg PUBLIC "-//W3C//DTD SVG 20010904//EN"
 "http://www.w3.org/TR/2001/REC-SVG-20010904/DTD/svg10.dtd">
<svg version="1.0" xmlns="http://www.w3.org/2000/svg"
 width="80.000000pt" height="47.000000pt" viewBox="0 0 80.000000 47.000000"
 preserveAspectRatio="xMidYMid meet">
<metadata>
Created by potrace 1.13, written by Peter Selinger 2001-2015
</metadata>
<g transform="translate(0.000000,47.000000) scale(0.100000,-0.100000)"
fill="#000000" stroke="none">
<path d="M195 437 c-63 -34 -99 -76 -115 -137 -8 -30 -6 -49 10 -96 37 -107
91 -162 174 -176 50 -8 129 4 151 23 5 5 21 9 36 9 26 0 96 48 112 76 4 8 15
14 23 14 21 0 115 40 137 58 9 8 17 20 17 25 0 6 -10 1 -22 -10 -28 -26 -110
-63 -137 -63 -12 0 -21 -5 -21 -12 0 -9 -3 -9 -12 0 -7 7 -17 12 -22 12 -6 0
-3 -6 8 -12 17 -10 16 -13 -18 -44 -23 -21 -47 -34 -65 -34 -15 0 -31 -4 -36
-9 -23 -20 -101 -31 -154 -22 -46 7 -59 15 -97 57 -55 61 -89 152 -74 203 15
53 59 109 94 121 27 9 90 50 76 49 -3 0 -32 -14 -65 -32z"/>
<path d="M285 460 c-3 -6 2 -13 12 -17 10 -3 33 -19 51 -35 28 -24 41 -28 96
-28 35 0 85 -2 112 -5 48 -4 49 -4 9 5 -22 5 -72 9 -111 9 -65 1 -73 3 -99 31
-16 17 -38 30 -49 31 -18 1 -18 2 4 9 23 7 23 8 3 9 -12 1 -25 -4 -28 -9z"/>
<path d="M387 459 c9 -8 107 -19 98 -11 -3 3 -28 9 -55 12 -28 4 -47 3 -43 -1z"/>
<path d="M495 459 c4 -5 12 -9 20 -9 42 0 150 -45 186 -78 37 -33 40 -39 37
-79 -2 -24 0 -43 4 -43 5 0 8 20 8 44 0 52 -25 88 -80 116 -47 24 -183 62
-175 49z"/>
<path d="M226 393 c-19 -39 -24 -86 -8 -89 7 -1 8 0 3 2 -11 6 2 69 19 89 16
19 54 19 70 0 9 -11 7 -19 -13 -41 -16 -17 -27 -22 -31 -15 -9 15 -36 14 -36
-1 0 -6 3 -8 6 -5 4 3 15 2 25 -3 14 -8 23 -4 44 17 30 33 32 49 6 63 -36 19
-69 12 -85 -17z"/>
<path d="M571 417 c2 -2 18 -11 34 -21 l30 -17 -24 20 c-13 12 -28 21 -34 21
-6 0 -8 -1 -6 -3z"/>
<path d="M162 388 c-7 -7 -12 -20 -12 -29 0 -10 -4 -21 -10 -24 -5 -3 -10 -11
-10 -16 0 -15 43 -6 46 9 1 7 0 8 -3 2 -2 -5 -12 -10 -21 -9 -11 0 -12 2 -4 6
6 2 12 15 12 28 0 32 17 41 23 13 4 -20 4 -19 6 5 1 29 -8 34 -27 15z"/>
<path d="M430 340 c14 -5 50 -8 79 -9 42 -1 64 -7 93 -27 41 -29 44 -34 26
-52 -18 -18 -27 -15 -21 8 6 23 -19 36 -93 44 l-49 5 56 -12 c70 -17 81 -24
74 -48 -8 -24 17 -26 39 -3 21 20 20 43 -1 51 -10 4 -29 14 -43 24 -17 11 -52
19 -105 22 -45 2 -69 1 -55 -3z"/>
<path d="M348 299 c-24 -14 -23 -39 2 -39 11 0 20 -4 20 -10 0 -5 -9 -10 -19
-10 -19 0 -39 -35 -27 -47 3 -4 6 1 6 11 0 9 12 21 26 26 17 7 24 15 20 25 -3
8 4 21 17 30 12 8 17 15 11 15 -6 0 -19 -7 -30 -15 -22 -16 -34 -19 -34 -7 0
5 10 14 23 20 12 6 18 11 12 11 -5 0 -18 -4 -27 -10z"/>
<path d="M428 303 c7 -3 16 -2 19 1 4 3 -2 6 -13 5 -11 0 -14 -3 -6 -6z"/>
<path d="M144 290 c2 -16 20 -14 24 2 3 10 2 10 -6 -1 -7 -9 -11 -10 -15 -2
-4 7 -5 8 -3 1z"/>
<path d="M432 278 c-7 -7 -12 -16 -12 -22 0 -5 6 -1 14 10 14 19 15 19 34 -3
30 -35 18 -70 -33 -93 -36 -16 -42 -23 -38 -43 3 -14 0 -28 -6 -31 -6 -4 -11
-12 -11 -18 0 -6 6 -5 16 3 10 8 14 23 12 41 -5 30 1 35 21 16 10 -11 11 -10
6 3 -4 11 3 20 24 29 23 9 31 19 32 39 2 41 -2 54 -19 68 -21 16 -25 16 -40 1z"/>
<path d="M390 251 c0 -10 19 -25 25 -20 1 2 -3 10 -11 17 -8 7 -14 8 -14 3z"/>
<path d="M695 239 c-11 -16 -1 -19 13 -3 7 8 8 14 3 14 -5 0 -13 -5 -16 -11z"/>
<path d="M215 208 c6 -30 -3 -35 -25 -15 -12 10 -12 9 -1 -5 28 -37 51 -17 30
27 -8 17 -8 15 -4 -7z"/>
<path d="M230 225 c1 -6 11 -22 23 -37 20 -24 23 -25 23 -9 0 11 -4 18 -7 15
-4 -2 -15 6 -23 18 -9 12 -16 18 -16 13z"/>
<path d="M430 219 c0 -5 -4 -7 -10 -4 -5 3 -10 1 -10 -4 0 -6 7 -11 15 -11 8
0 15 7 15 15 0 8 -2 15 -5 15 -3 0 -5 -5 -5 -11z"/>
<path d="M507 223 c-10 -9 -9 -23 1 -23 5 0 9 7 9 15 0 17 -1 18 -10 8z"/>
<path d="M126 193 c-6 -14 -5 -15 5 -6 7 7 10 15 7 18 -3 3 -9 -2 -12 -12z"/>
<path d="M330 161 c-5 -11 -25 -24 -44 -31 -19 -6 -40 -18 -46 -26 -19 -21
-30 -17 -21 9 5 13 20 25 37 29 l29 7 -30 -2 c-20 -1 -33 -9 -40 -24 -7 -16
-16 -21 -30 -18 -17 4 -16 3 3 -6 12 -7 22 -16 22 -22 0 -5 15 1 33 15 17 13
44 29 59 35 23 10 58 53 44 53 -3 0 -10 -9 -16 -19z"/>
<path d="M160 155 c0 -8 7 -15 16 -15 8 0 12 -4 9 -10 -3 -5 -1 -10 4 -10 6 0
11 7 11 15 0 8 -7 15 -16 15 -8 0 -12 5 -9 10 3 6 1 10 -4 10 -6 0 -11 -7 -11
-15z"/>
<path d="M493 150 c2 -8 12 -16 23 -17 13 -2 15 -1 4 4 -8 3 -19 11 -23 17 -6
7 -7 6 -4 -4z"/>
<path d="M438 99 c9 -10 17 -19 17 -19 0 0 1 8 1 18 0 10 -8 19 -17 19 -16 2
-17 0 -1 -18z"/>
</g>
</svg>
