<?xml version="1.0" standalone="no"?>
<!DOCTYPE svg PUBLIC "-//W3C//DTD SVG 20010904//EN"
 "http://www.w3.org/TR/2001/REC-SVG-20010904/DTD/svg10.dtd">
<svg version="1.0" xmlns="http://www.w3.org/2000/svg"
 width="60.000000pt" height="47.000000pt" viewBox="0 0 60.000000 47.000000"
 preserveAspectRatio="xMidYMid meet">
<metadata>
Created by potrace 1.13, written by Peter Selinger 2001-2015
</metadata>
<g transform="translate(0.000000,47.000000) scale(0.100000,-0.100000)"
fill="#000000" stroke="none">
<path d="M205 431 c-76 -38 -111 -70 -135 -124 -23 -53 -26 -71 -16 -127 14
-76 52 -128 106 -146 37 -12 51 -6 93 37 45 47 69 49 98 10 30 -41 71 -57 107
-42 34 15 82 77 82 106 0 12 5 36 11 53 8 22 8 46 -1 85 -15 74 -71 128 -159
157 -85 27 -115 25 -186 -9z m176 2 c57 -18 112 -58 142 -104 20 -31 25 -101
12 -164 -10 -49 -65 -122 -77 -103 -5 10 -8 8 -8 -4 0 -31 -39 -20 -81 22 -52
52 -78 52 -119 1 -50 -62 -86 -62 -86 -1 1 27 -3 35 -19 38 -19 4 -19 3 -1
-10 13 -10 16 -21 12 -36 -4 -12 -10 -22 -14 -22 -18 0 -66 78 -77 125 -24
104 29 191 150 250 59 29 94 31 166 8z"/>
<path d="M281 420 c0 -14 -11 -34 -22 -44 l-22 -18 27 -25 c28 -25 28 -25 62
-7 34 19 47 54 19 54 -7 0 -19 8 -24 18 -6 9 -11 12 -11 5 0 -6 10 -19 23 -28
l22 -16 -25 -19 c-27 -21 -40 -25 -40 -11 0 5 -10 12 -22 15 l-23 6 23 20 c17
14 22 27 19 47 -4 27 -4 27 -6 3z"/>
<path d="M370 409 c0 -5 11 -9 25 -9 29 0 33 -21 9 -41 -15 -12 -14 -15 5 -31
12 -9 21 -20 21 -25 -1 -4 4 -9 12 -11 10 -3 10 -2 -1 6 -11 8 -11 10 0 15 12
5 12 6 0 6 -11 1 -11 4 -1 16 7 8 18 15 25 15 21 0 54 -48 48 -69 -3 -10 -1
-21 4 -24 20 -13 5 55 -17 78 -27 29 -37 31 -61 9 -10 -9 -23 -13 -30 -8 -9 5
-7 10 5 20 25 18 16 46 -16 55 -16 4 -28 3 -28 -2z"/>
<path d="M185 389 c-4 -5 1 -19 11 -30 17 -19 16 -20 -11 -49 -31 -33 -45 -31
-45 6 0 27 -24 33 -34 8 -5 -14 -4 -15 9 -4 13 10 15 9 15 -8 0 -11 6 -25 14
-31 11 -10 21 -6 45 18 35 34 37 43 16 61 -9 7 -14 19 -11 27 6 16 0 17 -9 2z"/>
<path d="M230 289 c0 -9 7 -22 15 -29 8 -7 15 -20 15 -29 -1 -11 -7 -8 -21 12
-20 26 -52 36 -63 19 -3 -5 -19 -7 -36 -4 -16 2 -30 0 -30 -4 0 -11 65 -12 76
-1 15 14 35 7 46 -18 6 -14 17 -25 25 -25 17 0 17 31 -2 56 -8 10 -15 21 -15
24 0 3 29 5 65 6 36 0 65 -1 65 -4 0 -2 -9 -15 -19 -29 -19 -23 -19 -53 -1
-53 4 0 15 11 23 24 14 20 23 23 71 21 31 -1 56 2 56 5 0 4 -25 7 -55 7 -46 0
-59 -4 -74 -23 -25 -32 -35 -18 -11 16 11 16 20 32 20 37 0 6 -34 9 -75 9 -63
0 -75 -3 -75 -17z"/>
<path d="M89 272 c-3 -20 -2 -29 4 -23 5 5 7 19 5 32 -3 20 -5 19 -9 -9z"/>
<path d="M510 230 c8 -5 20 -10 25 -10 6 0 3 5 -5 10 -8 5 -19 10 -25 10 -5 0
-3 -5 5 -10z"/>
<path d="M153 196 c1 -11 9 -21 17 -23 10 -3 11 -2 4 4 -6 4 -14 15 -17 23 -5
11 -6 9 -4 -4z"/>
<path d="M420 190 c0 -6 7 -10 15 -10 8 0 15 2 15 4 0 2 -7 6 -15 10 -8 3 -15
1 -15 -4z"/>
<path d="M210 145 c0 -8 7 -15 15 -15 8 0 15 7 15 15 0 8 -7 15 -15 15 -8 0
-15 -7 -15 -15z"/>
<path d="M470 150 c-9 -6 -10 -10 -3 -10 6 0 15 5 18 10 8 12 4 12 -15 0z"/>
<path d="M423 128 c-6 -7 -12 -24 -15 -38 -3 -20 0 -26 13 -26 11 0 19 10 21
28 5 34 1 36 -12 6 -8 -22 -9 -22 -9 -2 -1 11 4 25 11 32 7 7 9 12 6 12 -3 0
-10 -6 -15 -12z"/>
<path d="M475 130 c-16 -7 -17 -9 -3 -9 9 -1 20 4 23 9 7 11 7 11 -20 0z"/>
<path d="M181 99 c-1 -8 6 -24 15 -35 15 -19 15 -19 6 1 -5 11 -12 27 -15 35
-5 13 -6 13 -6 -1z"/>
</g>
</svg>
