<?xml version="1.0" standalone="no"?>
<!DOCTYPE svg PUBLIC "-//W3C//DTD SVG 20010904//EN"
 "http://www.w3.org/TR/2001/REC-SVG-20010904/DTD/svg10.dtd">
<svg version="1.0" xmlns="http://www.w3.org/2000/svg"
 width="60.000000pt" height="47.000000pt" viewBox="0 0 60.000000 47.000000"
 preserveAspectRatio="xMidYMid meet">
<metadata>
Created by potrace 1.13, written by Peter Selinger 2001-2015
</metadata>
<g transform="translate(0.000000,47.000000) scale(0.100000,-0.100000)"
fill="#000000" stroke="none">
<path d="M252 450 c-96 -8 -144 -41 -191 -129 -32 -61 -33 -65 -20 -104 7 -22
20 -45 27 -51 8 -6 33 -30 56 -54 45 -46 124 -82 181 -82 54 0 143 47 172 91
14 21 34 41 45 45 41 13 51 109 18 173 -27 54 -84 98 -142 111 -27 5 -54 9
-61 9 -7 -1 -45 -5 -85 -9z m183 -22 c30 -16 85 -70 101 -100 8 -15 14 -48 14
-74 0 -41 -4 -50 -37 -80 -25 -23 -40 -31 -47 -24 -5 5 -22 10 -36 10 -15 0
-35 9 -45 20 -10 11 -20 18 -22 16 -11 -11 40 -46 66 -46 17 0 33 -5 36 -11
17 -27 -98 -99 -158 -99 -56 0 -124 29 -159 68 -19 20 -45 44 -59 53 -14 10
-31 34 -38 56 -12 35 -10 42 12 88 23 46 51 78 100 115 37 27 223 33 272 8z"/>
<path d="M317 398 c-5 -21 6 -106 14 -111 2 -2 12 -9 22 -16 14 -11 20 -11 34
0 15 13 16 11 9 -15 -8 -32 4 -46 40 -46 12 0 27 -7 34 -15 7 -8 17 -15 22
-15 18 0 20 31 4 49 -12 13 -14 21 -7 26 6 3 14 -1 17 -9 12 -32 34 -17 33 22
l-2 37 -7 -35 c-5 -28 -8 -31 -14 -17 -5 9 -14 17 -21 17 -21 0 -25 -26 -8
-49 18 -26 7 -44 -11 -18 -7 9 -22 17 -32 17 -28 0 -39 12 -39 43 -1 19 4 27
17 27 10 0 18 -7 18 -16 0 -9 -5 -12 -12 -8 -7 4 -8 3 -4 -4 12 -20 28 -13 24
11 -4 29 -47 36 -65 11 -13 -17 -14 -17 -34 2 -15 16 -21 35 -22 78 -1 31 -2
56 -3 56 -1 0 -4 -10 -7 -22z"/>
<path d="M160 392 c-16 -13 -22 -29 -22 -56 0 -23 -5 -39 -14 -43 -8 -3 -14
-9 -14 -14 0 -5 9 -4 19 3 14 9 20 23 19 52 0 27 5 44 18 53 21 15 44 17 44 3
0 -5 -7 -10 -15 -10 -12 0 -35 -28 -35 -44 0 -3 11 -6 25 -6 14 0 28 -7 31
-15 4 -8 14 -15 24 -15 13 0 19 11 23 42 7 55 0 63 -9 9 -7 -42 -20 -53 -30
-26 -4 8 -18 15 -33 15 l-26 1 28 22 c15 13 27 28 27 35 0 18 -35 15 -60 -6z"/>
<path d="M391 404 c-1 -6 8 -19 19 -29 20 -18 21 -18 15 1 -7 19 -6 19 9 0 9
-11 16 -30 16 -42 0 -20 46 -62 56 -51 2 2 -7 10 -21 17 -14 7 -25 22 -25 33
0 22 -30 77 -43 77 -4 0 -5 -4 -2 -10 3 -5 2 -10 -4 -10 -5 0 -12 6 -14 13 -3
7 -6 7 -6 1z"/>
<path d="M343 356 c4 -10 7 -26 7 -37 0 -25 27 -25 35 1 4 11 16 21 28 21 19
1 20 2 3 6 -12 3 -26 -3 -37 -18 l-19 -24 0 27 c0 15 -5 30 -12 34 -8 5 -9 2
-5 -10z"/>
<path d="M490 326 c0 -8 4 -17 9 -20 5 -4 7 3 4 14 -6 23 -13 26 -13 6z"/>
<path d="M89 328 c-6 -24 -7 -68 -1 -68 4 0 7 16 8 35 0 28 -3 46 -7 33z"/>
<path d="M255 280 c-18 -27 -20 -28 -27 -10 -4 11 -12 20 -18 20 -6 0 -3 -11
6 -25 l16 -25 25 24 c14 14 23 30 21 36 -1 5 -12 -4 -23 -20z"/>
<path d="M161 281 c-8 -5 -11 -16 -8 -26 4 -9 10 -14 15 -11 4 2 14 1 22 -4
13 -8 12 -11 -4 -23 -11 -8 -27 -12 -37 -10 -20 6 -34 -13 -18 -23 8 -5 9 -3
4 6 -6 10 -3 12 12 8 27 -7 68 24 60 46 -4 10 -11 15 -16 12 -5 -3 -11 1 -14
8 -3 8 -1 17 6 20 7 2 8 5 2 5 -5 0 -16 -3 -24 -8z"/>
<path d="M81 228 c-14 -23 -14 -23 8 -4 16 15 21 16 21 5 0 -8 -5 -20 -12 -27
-9 -9 -9 -15 1 -24 10 -11 11 -10 6 3 -4 10 -2 20 4 24 15 9 14 45 -2 45 -7 0
-18 -10 -26 -22z"/>
<path d="M328 213 c-10 -2 -18 -13 -18 -24 0 -10 -4 -19 -10 -19 -5 0 -10 9
-10 20 0 14 -6 20 -22 19 -17 -1 -19 -2 -5 -6 9 -2 17 -13 17 -24 0 -24 28
-25 37 -1 4 9 14 22 22 29 17 13 16 13 -11 6z"/>
<path d="M231 203 c-2 -23 -39 -52 -73 -56 l-33 -4 35 -1 c38 -2 86 36 77 60
-4 10 -6 10 -6 1z"/>
<path d="M298 143 c7 -3 16 -2 19 1 4 3 -2 6 -13 5 -11 0 -14 -3 -6 -6z"/>
<path d="M254 125 c-4 -8 -4 -21 -1 -29 4 -9 -1 -16 -11 -18 -13 -3 -12 -5 6
-10 12 -3 20 -2 16 3 -3 5 1 9 10 9 8 0 17 -6 20 -12 3 -7 3 2 0 20 -4 32 9
45 20 17 3 -8 11 -15 18 -14 10 0 10 2 1 6 -7 2 -13 11 -13 20 0 8 -7 13 -17
11 -10 -2 -17 -11 -17 -21 1 -9 -4 -17 -12 -17 -17 0 -19 36 -1 43 9 4 9 6 -1
6 -7 1 -15 -6 -18 -14z"/>
<path d="M336 125 c4 -8 8 -15 10 -15 2 0 4 7 4 15 0 8 -4 15 -10 15 -5 0 -7
-7 -4 -15z"/>
<path d="M345 70 c-3 -6 1 -7 9 -4 18 7 21 14 7 14 -6 0 -13 -4 -16 -10z"/>
</g>
</svg>
